<svg height="512pt" viewBox="-27 0 512 512.00814" width="512pt" xmlns="http://www.w3.org/2000/svg"><path d="m237.746094 324.75c8.5625 6.492188 11.164062 18.425781 11.164062 18.425781-3.121094-24.390625 26.988282-51.390625 26.988282-51.390625 7.269531 7.789063 6.75 16.613282 6.75 16.613282 7.265624-23.878907 14.753906-74.59375 14.753906-74.59375l2.035156 4.695312c.042969-2.316406-.0625-4.625-.53125-6.878906 0 0-15.953125-.484375-20.417969 5.046875 0 0 20.65625-33.914063 17.203125-56.554688 0 0-14.339844-1.011719-21.695312 6.148438 0 0 18.3125-36 12.191406-61.300781 0 0-15.167969.203124-23.976562 10.828124 0 0 14.984374-25.820312-4.433594-57.628906 0 0-13.484375 1.144532-20.847656 13.609375 0 0 6.058593-48.015625-35.402344-82.945312 0 0-44.195313 16.898437-66.359375 61.496093 0 0-2.511719-19.007812-13.996094-25.035156 0 0-24.675781 25.589844-28.71875 61.132813 0 0-.140625-8.234375-8.773437-19.261719 0 0-19.273438 9.695312-20.320313 48.472656l-15.347656-11.414062s-15.363281 27.15625-8.351563 58.003906c0 0-5-10.039062-18.019531-14.066406 0 0-16.449219 48.5625 2.445313 73.484375 0 0-10.4375-11.523438-24.08203175-13.3125 0 0 4.35937475 117.414062 109.17968775 187.445312 0 0 45.335937-3.160156 96.472656-34.910156-2.191406-54.164063 32.089844-56.109375 32.089844-56.109375zm0 0" fill="#61b872"/><path d="m446.632812 213.816406s-36.59375-5.453125-69.035156 16.613282c0 0 5.707032-14.011719.253906-22.574219 0 0-26.734374 8.042969-43.339843 30.882812 0 0 3.121093-5.707031 1.5625-16.613281 0 0-16.871094-.777344-32.699219 25.429688l-5.972656-13.757813s-21.019532 12.71875-28.285156 36.59375c0 0 .519531-8.828125-6.75-16.617187 0 0-30.109376 26.992187-26.988282 51.394531 0 0-2.597656-11.9375-11.160156-18.429688 0 0-42.820312 82.273438 1.039062 170.777344 0 0 80.714844 38.671875 174.40625-15.054687 0 0-9.867187-9.863282-14.269531-8.5625 0 0 34-9.601563 40.484375-29.589844 0 0-10.640625-6.492188-15.828125-4.410156 0 0 27.253907-15.3125 33.738281-32.179688 0 0-9.347656-6.226562-17.132812-4.148438 0 0 26.46875-17.644531 32.175781-37.378906 0 0-10.382812-5.707031-20.503906-1.8125 0 0 20.242187-11.9375 19.464844-41.269531 0 0-9.601563-4.414063-19.464844 1.292969.007813.011718 22.839844-30.617188 8.304687-70.585938zm0 0" fill="#3d6f44"/><path d="m167.644531 512.007812c-2.878906 0-5.707031-1.410156-7.398437-4.007812-2.652344-4.085938-1.488282-9.539062 2.589844-12.191406 1.550781-1.003906 156.695312-103.027344 276.414062-286.800782 2.660156-4.070312 8.113281-5.214843 12.191406-2.570312 4.078125 2.660156 5.234375 8.113281 2.574219 12.191406-121.855469 187.039063-280 290.929688-281.585937 291.960938-1.480469.960937-3.136719 1.417968-4.785157 1.417968zm0 0" fill="#61b872"/><g fill="#3d6f44"><path d="m73.945312 510.914062c-1.375 0-2.773437-.324218-4.078124-1.003906-4.308594-2.261718-5.972657-7.574218-3.71875-11.890625 1.09375-2.085937 109.515624-211.90625 126.59375-489.757812.300781-4.851563 4.492187-8.457031 9.328124-8.2539065 4.855469.3007815 8.554688 4.4765625 8.253907 9.3359375-17.316407 281.789062-127.464844 494.738281-128.574219 496.851562-1.574219 3.011719-4.640625 4.71875-7.804688 4.71875zm0 0"/><path d="m169.699219 234.6875c-.335938 0-.667969-.019531-1.011719-.0625-4.835938-.546875-8.300781-4.925781-7.753906-9.742188.078125-.671874 7.25-67.546874-24.515625-99.3125-3.445313-3.445312-3.445313-9.011718 0-12.457031 3.4375-3.441406 9.019531-3.441406 12.457031 0 37.808594 37.808594 29.914062 110.683594 29.5625 113.777344-.519531 4.484375-4.324219 7.796875-8.738281 7.796875zm0 0"/><path d="m154.449219 294.746094c-1.769531 0-3.566407-.539063-5.117188-1.648438-3.953125-2.828125-4.871093-8.332031-2.042969-12.296875 5.292969-7.398437 52.816407-72.601562 90.113282-81.929687 4.714844-1.191406 9.496094 1.679687 10.6875 6.410156 1.179687 4.714844-1.691406 9.496094-6.414063 10.675781-26.292969 6.582031-66.710937 56.441407-80.0625 75.097657-1.710937 2.40625-4.421875 3.691406-7.164062 3.691406zm0 0"/><path d="m132.277344 367.304688c-.464844 0-.949219-.035157-1.425782-.113282-4.792968-.785156-8.050781-5.3125-7.285156-10.105468.097656-.582032 9.054688-59.839844-31.738281-108.789063-3.117187-3.746094-2.609375-9.304687 1.128906-12.414063 3.734375-3.109374 9.292969-2.613281 12.402344 1.128907 46.097656 55.3125 36.035156 120.199219 35.585937 122.929687-.695312 4.316406-4.429687 7.363282-8.667968 7.363282zm0 0"/></g><path d="m318.710938 382.359375c-2.75 0-5.453126-1.285156-7.171876-3.691406-2.828124-3.957031-1.910156-9.453125 2.042969-12.289063 46.035157-32.902344 92.035157-35.667968 93.976563-35.773437 4.878906-.175781 8.984375 3.480469 9.246094 8.324219.265624 4.855468-3.460938 8.996093-8.3125 9.277343-.425782.015625-43.007813 2.722657-84.664063 32.496094-1.558594 1.128906-3.347656 1.65625-5.117187 1.65625zm0 0" fill="#61b872"/><path d="m265.558594 433.828125c-1.253906 0-2.53125-.261719-3.734375-.835937-4.40625-2.0625-6.300781-7.3125-4.230469-11.714844 32.082031-68.375 25.808594-96.253906 25.738281-96.527344-1.144531-4.660156 1.632813-9.460938 6.273438-10.695312 4.632812-1.234376 9.390625 1.382812 10.710937 6.007812.945313 3.277344 8.175782 34.214844-26.777344 108.703125-1.5 3.1875-4.667968 5.0625-7.980468 5.0625zm0 0" fill="#61b872"/></svg>